D:\school\WTK\thesis\model\3dpredictsim\Results\batch_windlass\Pog_s1_tmt_aCst_d00_k1000_WL10_ig24_pas_GRF.mot
nRows=22
nColumns=19

name D:\school\WTK\thesis\model\3dpredictsim\Results\batch_windlass\Pog_s1_tmt_aCst_d00_k1000_WL10_ig24_pas_GRF.mot
datacolumns 19
datarows 22
range 0.0000000000 0.2253878357
endheader
time 	ground_force_vx	ground_force_vy	ground_force_vz	ground_force_px	ground_force_py	ground_force_pz	1_ground_force_vx	1_ground_force_vy	1_ground_force_vz	1_ground_force_px	1_ground_force_py	1_ground_force_pz	ground_torque_x	ground_torque_y	ground_torque_z	1_ground_torque_x	1_ground_torque_y	1_ground_torque_z
        0.0000000000	      -98.0018019975	       81.5371664896	       33.8720337241	        0.1313101488	        0.0000000000	        0.0404751525	       95.0504153882	      424.9985239688	       -2.4868335674	       -0.3361974850	        0.0000000000	       -0.0331270970	        0.0000000000	        0.0000000000	        0.0000000000	        0.0000000000	        0.0000000000	        0.0000000000	
        0.0107327541	     -142.7563535670	      161.3645022097	       73.9524036807	        0.1410730678	        0.0000000000	        0.0392377603	       65.7947750449	      328.5716711256	      -11.2489754400	       -0.3301181264	        0.0000000000	       -0.0307146455	        0.0000000000	        0.0000000000	        0.0000000000	        0.0000000000	        0.0000000000	        0.0000000000	
        0.0214655082	      -66.4948208499	      350.6468862217	       29.1626559945	        0.1538512070	        0.0000000000	        0.0396040528	       31.3183972103	      218.5741508399	      -13.1088681206	       -0.3184870242	        0.0000000000	       -0.0250681841	        0.0000000000	        0.0000000000	        0.0000000000	        0.0000000000	        0.0000000000	        0.0000000000	
        0.0321982622	      -69.5225157932	      579.5806703393	       -2.6070028417	        0.1627771958	        0.0000000000	        0.0411393567	        9.6743275170	      151.2845205444	      -13.2470242187	       -0.3063422018	        0.0000000000	       -0.0181461845	        0.0000000000	        0.0000000000	        0.0000000000	        0.0000000000	        0.0000000000	        0.0000000000	
        0.0429310163	      -99.4374598140	      790.9289997542	      -11.6653450788	        0.1708564959	        0.0000000000	        0.0415568433	        2.1746517914	      118.9227762605	      -11.4114782013	       -0.3065433524	        0.0000000000	       -0.0182340892	        0.0000000000	        0.0000000000	        0.0000000000	        0.0000000000	        0.0000000000	        0.0000000000	
        0.0536637704	     -120.8517964666	      929.1852895383	      -15.5595941838	        0.1808033550	        0.0000000000	        0.0409983372	       -4.5351301943	       77.0229130850	       -9.8840711316	       -0.3064360625	        0.0000000000	       -0.0182642929	        0.0000000000	        0.0000000000	        0.0000000000	        0.0000000000	        0.0000000000	        0.0000000000	
        0.0643965245	     -127.3648810178	      955.1941337454	      -13.2926613793	        0.1878416316	        0.0000000000	        0.0403124842	       -9.7716507594	       27.6669321077	       -4.8533913248	       -0.3072390944	        0.0000000000	       -0.0182019703	        0.0000000000	        0.0000000000	        0.0000000000	        0.0000000000	        0.0000000000	        0.0000000000	
        0.0751292786	     -115.8432712105	      911.6237936266	      -10.8856054241	        0.1915035329	        0.0000000000	        0.0397976567	        0.1029458964	       -0.1087823721	        0.0129994207	        0.0000000000	        0.0000000000	        0.0000000000	        0.0000000000	        0.0000000000	        0.0000000000	        0.0000000000	        0.0000000000	        0.0000000000	
        0.0858620326	      -98.5854115382	      848.7188134292	      -11.1647936744	        0.1946158207	        0.0000000000	        0.0394043767	        0.0001973966	       -0.0001759807	        0.0000049217	        0.0000000000	        0.0000000000	        0.0000000000	        0.0000000000	        0.0000000000	        0.0000000000	        0.0000000000	        0.0000000000	        0.0000000000	
        0.0965947867	      -83.9830800256	      792.3512434187	      -12.6312602003	        0.1977932534	        0.0000000000	        0.0391227752	        0.0000083931	       -0.0000064292	       -0.0000001422	        0.0000000000	        0.0000000000	        0.0000000000	        0.0000000000	        0.0000000000	        0.0000000000	        0.0000000000	        0.0000000000	        0.0000000000	
        0.1073275408	      -71.2923963453	      746.9270856715	      -13.9146235280	        0.2010284186	        0.0000000000	        0.0389472239	        0.0000150637	       -0.0000101039	       -0.0000006548	        0.0000000000	        0.0000000000	        0.0000000000	        0.0000000000	        0.0000000000	        0.0000000000	        0.0000000000	        0.0000000000	        0.0000000000	
        0.1180602949	      -59.0925251485	      708.8280204551	      -14.5821837895	        0.2042851570	        0.0000000000	        0.0388642578	        0.0002884354	       -0.0001736766	       -0.0000176097	        0.0000000000	        0.0000000000	        0.0000000000	        0.0000000000	        0.0000000000	        0.0000000000	        0.0000000000	        0.0000000000	        0.0000000000	
        0.1287930490	      -47.9123899286	      677.0348551461	      -16.1513276397	        0.2085706936	        0.0000000000	        0.0388081221	       -0.0024227911	        0.0013413549	        0.0001760838	        0.0000000000	        0.0000000000	        0.0000000000	        0.0000000000	        0.0000000000	        0.0000000000	        0.0000000000	        0.0000000000	        0.0000000000	
        0.1395258030	      -40.2937730199	      651.0507087982	      -18.0337153329	        0.2139526689	        0.0000000000	        0.0387376033	       -0.0110167302	        0.0057181992	        0.0009007088	        0.0000000000	        0.0000000000	        0.0000000000	        0.0000000000	        0.0000000000	        0.0000000000	        0.0000000000	        0.0000000000	        0.0000000000	
        0.1502585571	      -35.0381891648	      630.3597000464	      -19.4158708151	        0.2197641051	        0.0000000000	        0.0386630912	       -0.0074807945	        0.0036901734	        0.0006684167	        0.0000000000	        0.0000000000	        0.0000000000	        0.0000000000	        0.0000000000	        0.0000000000	        0.0000000000	        0.0000000000	        0.0000000000	
        0.1609913112	      -30.7565162495	      614.9876832287	      -20.4548668722	        0.2259111877	        0.0000000000	        0.0385767949	       -0.0058258462	        0.0027548887	        0.0005582387	        0.0000000000	        0.0000000000	        0.0000000000	        0.0000000000	        0.0000000000	        0.0000000000	        0.0000000000	        0.0000000000	        0.0000000000	
        0.1717240653	      -27.7004149873	      603.9223434896	      -20.9500363105	        0.2321400105	        0.0000000000	        0.0384777371	       -0.0059520251	        0.0027130044	        0.0006020550	        0.0000000000	        0.0000000000	        0.0000000000	        0.0000000000	        0.0000000000	        0.0000000000	        0.0000000000	        0.0000000000	        0.0000000000	
        0.1824568193	      -25.1622756254	      596.0696591032	      -20.6235911040	        0.2381967943	        0.0000000000	        0.0383825399	       -0.0080021137	        0.0035299693	        0.0008410223	        0.0000000000	        0.0000000000	        0.0000000000	        0.0000000000	        0.0000000000	        0.0000000000	        0.0000000000	        0.0000000000	        0.0000000000	
        0.1931895734	      -22.8603927427	      590.7687329763	      -19.9534153320	        0.2441658144	        0.0000000000	        0.0382755960	       -0.0134572472	        0.0057645170	        0.0014454899	        0.0000000000	        0.0000000000	        0.0000000000	        0.0000000000	        0.0000000000	        0.0000000000	        0.0000000000	        0.0000000000	        0.0000000000	
        0.2039223275	      -21.7041346532	      587.5275155003	      -19.0447853714	        0.2499656061	        0.0000000000	        0.0381547878	       -0.0263280639	        0.0109877008	        0.0028540653	        0.0000000000	        0.0000000000	        0.0000000000	        0.0000000000	        0.0000000000	        0.0000000000	        0.0000000000	        0.0000000000	        0.0000000000	
        0.2146550816	      -20.6378804775	      584.8352994313	      -18.0717783062	        0.2554338436	        0.0000000000	        0.0380337876	       -0.0553876552	        0.0225931469	        0.0059989729	        0.0000000000	        0.0000000000	        0.0000000000	        0.0000000000	        0.0000000000	        0.0000000000	        0.0000000000	        0.0000000000	        0.0000000000	
        0.2253878357	      -19.0842602900	      581.5845582829	      -17.4994334081	        0.2606687082	        0.0000000000	        0.0379044792	       -0.1164859615	        0.0465885723	        0.0125263640	        0.0000000000	        0.0000000000	        0.0000000000	        0.0000000000	        0.0000000000	        0.0000000000	        0.0000000000	        0.0000000000	        0.0000000000	
